<svg xmlns="http://www.w3.org/2000/svg" style="display:none">
  <symbol id="icon-article" viewBox="0 0 24 24" fill="none" stroke-width="1.5">
    <path d="M8 15C12.8747 15 15 12.949 15 8C15 12.949 17.1104 15 22 15C17.1104 15 15 17.1104 15 22C15 17.1104 12.8747 15 8 15Z" stroke="currentColor" stroke-width="1.5" stroke-linejoin="round"/>
    <path d="M2 6.5C5.13376 6.5 6.5 5.18153 6.5 2C6.5 5.18153 7.85669 6.5 11 6.5C7.85669 6.5 6.5 7.85669 6.5 11C6.5 7.85669 5.13376 6.5 2 6.5Z" stroke="currentColor" stroke-width="1.5" stroke-linejoin="round"/>
  </symbol>
  <symbol id="icon-bookmark" viewBox="0 0 24 24" fill="none" stroke-width="1.5">
    <path d="M5 21V5C5 3.89543 5.89543 3 7 3H17C18.1046 3 19 3.89543 19 5V21L13.0815 17.1953C12.4227 16.7717 11.5773 16.7717 10.9185 17.1953L5 21Z" stroke="currentColor" stroke-width="1.5" stroke-linecap="round" stroke-linejoin="round"/>
  </symbol>
  <symbol id="icon-note" viewBox="0 0 24 24" fill="none" stroke-width="1.5">
    <path d="M8 14L16 14" stroke="currentColor" stroke-width="1.5" stroke-linecap="round" stroke-linejoin="round"/>
    <path d="M8 10L10 10" stroke="currentColor" stroke-width="1.5" stroke-linecap="round" stroke-linejoin="round"/>
    <path d="M8 18L12 18" stroke="currentColor" stroke-width="1.5" stroke-linecap="round" stroke-linejoin="round"/>
    <path d="M10 3H6C4.89543 3 4 3.89543 4 5V20C4 21.1046 4.89543 22 6 22H18C19.1046 22 20 21.1046 20 20V5C20 3.89543 19.1046 3 18 3H14.5M10 3V1M10 3V5" stroke="currentColor" stroke-width="1.5" stroke-linecap="round" stroke-linejoin="round"/>
  </symbol>
  <symbol id="icon-code" viewBox="0 0 24 24" fill="none" stroke-width="1.5">
    <path d="M13 16H18" stroke="currentColor" stroke-width="1.5" stroke-linecap="round" stroke-linejoin="round"></path>
    <path d="M6 8L10 12L6 16" stroke="currentColor" stroke-width="1.5" stroke-linecap="round" stroke-linejoin="round"></path>
    <path d="M2 18V6C2 4.89543 2.89543 4 4 4H20C21.1046 4 22 4.89543 22 6V18C22 19.1046 21.1046 20 20 20H4C2.89543 20 2 19.1046 2 18Z" stroke="currentColor" stroke-width="1.5" stroke-linecap="round" stroke-linejoin="round"></path>
  </symbol>
  <symbol id="icon-album" viewBox="0 0 24 24" fill="none" stroke-width="1.5">
    <path d="M21 7.6V20.4C21 20.7314 20.7314 21 20.4 21H7.6C7.26863 21 7 20.7314 7 20.4V7.6C7 7.26863 7 7 7.6 7H20.4C20.7314 7 21 7.26863 21 7.6Z" stroke="currentColor" stroke-width="1.5" stroke-linecap="round" stroke-linejoin="round"/>
    <path d="M18 4H4.6C4.26863 4 4 4.26863 4 4.6V18" stroke="currentColor" stroke-width="1.5" stroke-linecap="round" stroke-linejoin="round"/>
    <path d="M7 16.8L12.4444 15L21 18" stroke="currentColor" stroke-width="1.5" stroke-linecap="round" stroke-linejoin="round"/>
    <path d="M16.5 13C15.6716 13 15 12.3284 15 11.5C15 10.6716 15.6716 10 16.5 10C17.3284 10 18 10.6716 18 11.5C18 12.3284 17.3284 13 16.5 13Z" stroke="currentColor" stroke-width="1.5" stroke-linecap="round" stroke-linejoin="round"/>
  </symbol>
  <symbol id="icon-writing" viewBox="0 0 24 24" fill="none" stroke-width="1.5">
    <path d="M14.3632 5.65156L15.8431 4.17157C16.6242 3.39052 17.8905 3.39052 18.6716 4.17157L20.0858 5.58579C20.8668 6.36683 20.8668 7.63316 20.0858 8.41421L18.6058 9.8942M14.3632 5.65156L4.74749 15.2672C4.41542 15.5993 4.21079 16.0376 4.16947 16.5054L3.92738 19.2459C3.87261 19.8659 4.39148 20.3848 5.0115 20.33L7.75191 20.0879C8.21972 20.0466 8.65806 19.8419 8.99013 19.5099L18.6058 9.8942M14.3632 5.65156L18.6058 9.8942" stroke="currentColor" stroke-width="1.5" stroke-linecap="round" stroke-linejoin="round"/>
  </symbol>
  <symbol id="icon-award" viewBox="0 0 24 24" fill="none" stroke-width="1.5">
    <path d="M6.74534 4H17.3132C17.3132 4 16.4326 17.2571 12.0293 17.2571C9.87826 17.2571 8.56786 14.0935 7.79011 10.8571C6.97574 7.46844 6.74534 4 6.74534 4Z" stroke="currentColor" stroke-width="1.5" stroke-linecap="round" stroke-linejoin="round"/>
    <path d="M17.3132 4C17.3132 4 18.2344 3.01733 19 2.99999C20.5 2.96603 20.7773 4 20.7773 4C21.0709 4.60953 21.3057 6.19429 19.8967 7.65715C18.4876 9.12 16.9103 10.4 16.2684 10.8571" stroke="currentColor" stroke-width="1.5" stroke-linecap="round" stroke-linejoin="round"/>
    <path d="M6.74527 4.00001C6.74527 4.00001 5.78547 3.00614 4.99995 3.00001C3.49995 2.9883 3.22264 4.00001 3.22264 4.00001C2.92908 4.60953 2.69424 6.19429 4.1033 7.65715C5.51235 9.12001 7.14823 10.4 7.79004 10.8572" stroke="currentColor" stroke-width="1.5" stroke-linecap="round" stroke-linejoin="round"/>
    <path d="M8.50662 20C8.50662 18.1714 12.0292 17.2571 12.0292 17.2571C12.0292 17.2571 15.5519 18.1714 15.5519 20H8.50662Z" stroke="currentColor" stroke-width="1.5" stroke-linecap="round" stroke-linejoin="round"/>
  </symbol>
  <symbol id="icon-code" viewBox="0 0 24 24" fill="none" stroke-width="1.5">
    <path d="M13 16H18" stroke="currentColor" stroke-width="1.5" stroke-linecap="round" stroke-linejoin="round"/>
    <path d="M6 8L10 12L6 16" stroke="currentColor" stroke-width="1.5" stroke-linecap="round" stroke-linejoin="round"/>
    <path d="M2 18V6C2 4.89543 2.89543 4 4 4H20C21.1046 4 22 4.89543 22 6V18C22 19.1046 21.1046 20 20 20H4C2.89543 20 2 19.1046 2 18Z" stroke="currentColor" stroke-width="1.5" stroke-linecap="round" stroke-linejoin="round"/>
  </symbol>
  <symbol id="icon-readmore" viewBox="0 0 24 24" fill="none" stroke-width="1.5">
    <path d="M6.75 12H16.75M16.75 12L14 14.75M16.75 12L14 9.25" stroke="currentColor" stroke-width="1.5" stroke-linecap="round" stroke-linejoin="round"/>
    <path d="M2 15V9C2 6.79086 3.79086 5 6 5H18C20.2091 5 22 6.79086 22 9V15C22 17.2091 20.2091 19 18 19H6C3.79086 19 2 17.2091 2 15Z" stroke="currentColor" stroke-width="1.5"/>
  </symbol>
</svg>
