<svg xmlns="http://www.w3.org/2000/svg" style="display:none">
  <symbol id="icon-article" viewBox="0 0 24 24" fill="none" stroke-width="1.5">
    <path d="M8 15C12.8747 15 15 12.949 15 8C15 12.949 17.1104 15 22 15C17.1104 15 15 17.1104 15 22C15 17.1104 12.8747 15 8 15Z" stroke="currentColor" stroke-width="1.5" stroke-linejoin="round"/>
    <path d="M2 6.5C5.13376 6.5 6.5 5.18153 6.5 2C6.5 5.18153 7.85669 6.5 11 6.5C7.85669 6.5 6.5 7.85669 6.5 11C6.5 7.85669 5.13376 6.5 2 6.5Z" stroke="currentColor" stroke-width="1.5" stroke-linejoin="round"/>
  </symbol>
    <symbol id="icon-share-ios" viewBox="0 0 24 24" fill="none" stroke-width="1.5">
      <path d="M20 13V19C20 20.1046 19.1046 21 18 21H6C4.89543 21 4 20.1046 4 19V13" stroke="currentColor" stroke-width="1.5" stroke-linecap="round" stroke-linejoin="round"/>
      <path d="M12 15V3M12 3L8.5 6.5M12 3L15.5 6.5" stroke="currentColor" stroke-width="1.5" stroke-linecap="round" stroke-linejoin="round"/>
    </symbol>
    <symbol id="icon-share-android" viewBox="0 0 24 24" fill="none" stroke-width="1.5">
      <path d="M18 22C19.6569 22 21 20.6569 21 19C21 17.3431 19.6569 16 18 16C16.3431 16 15 17.3431 15 19C15 20.6569 16.3431 22 18 22Z" stroke="currentColor" stroke-width="1.5" stroke-linecap="round" stroke-linejoin="round"/>
      <path d="M18 8C19.6569 8 21 6.65685 21 5C21 3.34315 19.6569 2 18 2C16.3431 2 15 3.34315 15 5C15 6.65685 16.3431 8 18 8Z" stroke="currentColor" stroke-width="1.5" stroke-linecap="round" stroke-linejoin="round"/>
      <path d="M6 15C7.65685 15 9 13.6569 9 12C9 10.3431 7.65685 9 6 9C4.34315 9 3 10.3431 3 12C3 13.6569 4.34315 15 6 15Z" stroke="currentColor" stroke-width="1.5" stroke-linecap="round" stroke-linejoin="round"/>
      <path d="M15.5 6.5L8.5 10.5" stroke="currentColor" stroke-width="1.5"/>
      <path d="M8.5 13.5L15.5 17.5" stroke="currentColor" stroke-width="1.5"/>
    </symbol>
  <symbol id="icon-bookmark" viewBox="0 0 24 24" fill="none" stroke-width="1.5">
    <path d="M5 21V5C5 3.89543 5.89543 3 7 3H17C18.1046 3 19 3.89543 19 5V21L13.0815 17.1953C12.4227 16.7717 11.5773 16.7717 10.9185 17.1953L5 21Z" stroke="currentColor" stroke-width="1.5" stroke-linecap="round" stroke-linejoin="round"/>
  </symbol>
  <symbol id="icon-note" viewBox="0 0 24 24" fill="none" stroke-width="1.5">
    <path d="M8 14L16 14" stroke="currentColor" stroke-width="1.5" stroke-linecap="round" stroke-linejoin="round"/>
    <path d="M8 10L10 10" stroke="currentColor" stroke-width="1.5" stroke-linecap="round" stroke-linejoin="round"/>
    <path d="M8 18L12 18" stroke="currentColor" stroke-width="1.5" stroke-linecap="round" stroke-linejoin="round"/>
    <path d="M10 3H6C4.89543 3 4 3.89543 4 5V20C4 21.1046 4.89543 22 6 22H18C19.1046 22 20 21.1046 20 20V5C20 3.89543 19.1046 3 18 3H14.5M10 3V1M10 3V5" stroke="currentColor" stroke-width="1.5" stroke-linecap="round" stroke-linejoin="round"/>
  </symbol>
  <symbol id="icon-code" viewBox="0 0 24 24" fill="none" stroke-width="1.5">
    <path d="M13 16H18" stroke="currentColor" stroke-width="1.5" stroke-linecap="round" stroke-linejoin="round"></path>
    <path d="M6 8L10 12L6 16" stroke="currentColor" stroke-width="1.5" stroke-linecap="round" stroke-linejoin="round"></path>
    <path d="M2 18V6C2 4.89543 2.89543 4 4 4H20C21.1046 4 22 4.89543 22 6V18C22 19.1046 21.1046 20 20 20H4C2.89543 20 2 19.1046 2 18Z" stroke="currentColor" stroke-width="1.5" stroke-linecap="round" stroke-linejoin="round"></path>
  </symbol>
  <symbol id="icon-album" viewBox="0 0 24 24" fill="none" stroke-width="1.5">
    <path d="M21 7.6V20.4C21 20.7314 20.7314 21 20.4 21H7.6C7.26863 21 7 20.7314 7 20.4V7.6C7 7.26863 7 7 7.6 7H20.4C20.7314 7 21 7.26863 21 7.6Z" stroke="currentColor" stroke-width="1.5" stroke-linecap="round" stroke-linejoin="round"/>
    <path d="M18 4H4.6C4.26863 4 4 4.26863 4 4.6V18" stroke="currentColor" stroke-width="1.5" stroke-linecap="round" stroke-linejoin="round"/>
    <path d="M7 16.8L12.4444 15L21 18" stroke="currentColor" stroke-width="1.5" stroke-linecap="round" stroke-linejoin="round"/>
    <path d="M16.5 13C15.6716 13 15 12.3284 15 11.5C15 10.6716 15.6716 10 16.5 10C17.3284 10 18 10.6716 18 11.5C18 12.3284 17.3284 13 16.5 13Z" stroke="currentColor" stroke-width="1.5" stroke-linecap="round" stroke-linejoin="round"/>
  </symbol>
  <symbol id="icon-writing" viewBox="0 0 24 24" fill="none" stroke-width="1.5">
    <path d="M14.3632 5.65156L15.8431 4.17157C16.6242 3.39052 17.8905 3.39052 18.6716 4.17157L20.0858 5.58579C20.8668 6.36683 20.8668 7.63316 20.0858 8.41421L18.6058 9.8942M14.3632 5.65156L4.74749 15.2672C4.41542 15.5993 4.21079 16.0376 4.16947 16.5054L3.92738 19.2459C3.87261 19.8659 4.39148 20.3848 5.0115 20.33L7.75191 20.0879C8.21972 20.0466 8.65806 19.8419 8.99013 19.5099L18.6058 9.8942M14.3632 5.65156L18.6058 9.8942" stroke="currentColor" stroke-width="1.5" stroke-linecap="round" stroke-linejoin="round"/>
  </symbol>
  <symbol id="icon-award" viewBox="0 0 24 24" fill="none" stroke-width="1.5">
    <path d="M6.74534 4H17.3132C17.3132 4 16.4326 17.2571 12.0293 17.2571C9.87826 17.2571 8.56786 14.0935 7.79011 10.8571C6.97574 7.46844 6.74534 4 6.74534 4Z" stroke="currentColor" stroke-width="1.5" stroke-linecap="round" stroke-linejoin="round"/>
    <path d="M17.3132 4C17.3132 4 18.2344 3.01733 19 2.99999C20.5 2.96603 20.7773 4 20.7773 4C21.0709 4.60953 21.3057 6.19429 19.8967 7.65715C18.4876 9.12 16.9103 10.4 16.2684 10.8571" stroke="currentColor" stroke-width="1.5" stroke-linecap="round" stroke-linejoin="round"/>
    <path d="M6.74527 4.00001C6.74527 4.00001 5.78547 3.00614 4.99995 3.00001C3.49995 2.9883 3.22264 4.00001 3.22264 4.00001C2.92908 4.60953 2.69424 6.19429 4.1033 7.65715C5.51235 9.12001 7.14823 10.4 7.79004 10.8572" stroke="currentColor" stroke-width="1.5" stroke-linecap="round" stroke-linejoin="round"/>
    <path d="M8.50662 20C8.50662 18.1714 12.0292 17.2571 12.0292 17.2571C12.0292 17.2571 15.5519 18.1714 15.5519 20H8.50662Z" stroke="currentColor" stroke-width="1.5" stroke-linecap="round" stroke-linejoin="round"/>
  </symbol>
  <symbol id="icon-like" viewBox="0 0 24 24" fill="none" stroke-width="1.5">
    <path d="M22 8.86222C22 10.4087 21.4062 11.8941 20.3458 12.9929C17.9049 15.523 15.5374 18.1613 13.0053 20.5997C12.4249 21.1505 11.5042 21.1304 10.9488 20.5547L3.65376 12.9929C1.44875 10.7072 1.44875 7.01723 3.65376 4.73157C5.88044 2.42345 9.50794 2.42345 11.7346 4.73157L11.9998 5.00642L12.2648 4.73173C13.3324 3.6245 14.7864 3 16.3053 3C17.8242 3 19.2781 3.62444 20.3458 4.73157C21.4063 5.83045 22 7.31577 22 8.86222Z" stroke="currentColor" stroke-linecap="round" stroke-linejoin="round"/>
  </symbol>
  <symbol id="icon-photo" viewBox="0 0 24 24" fill="none" stroke-width="1.5">
    <path d="M21 3.6V20.4C21 20.7314 20.7314 21 20.4 21H3.6C3.26863 21 3 20.7314 3 20.4V3.6C3 3.26863 3.26863 3 3.6 3H20.4C20.7314 3 21 3.26863 21 3.6Z" stroke="currentColor" stroke-linecap="round" stroke-linejoin="round"/>
    <path d="M3 16L10 13L21 18" stroke="currentColor" stroke-linecap="round" stroke-linejoin="round"/>
    <path d="M16 10C14.8954 10 14 9.10457 14 8C14 6.89543 14.8954 6 16 6C17.1046 6 18 6.89543 18 8C18 9.10457 17.1046 10 16 10Z" stroke="currentColor" stroke-linecap="round" stroke-linejoin="round"/>
  </symbol>
  <symbol id="icon-reply" viewBox="0 0 24 24" fill="none" stroke-width="1.5">
    <path d="M12 22C17.5228 22 22 17.5228 22 12C22 6.47715 17.5228 2 12 2C6.47715 2 2 6.47715 2 12C2 13.8214 2.48697 15.5291 3.33782 17L2.5 21.5L7 20.6622C8.47087 21.513 10.1786 22 12 22Z" stroke="currentColor" stroke-linecap="round" stroke-linejoin="round"/>
  </symbol>
  <symbol id="icon-readmore" viewBox="0 0 24 24" fill="none" stroke-width="1.5">
    <path d="M6.75 12H16.75M16.75 12L14 14.75M16.75 12L14 9.25" stroke="currentColor" stroke-width="1.5" stroke-linecap="round" stroke-linejoin="round"/>
    <path d="M2 15V9C2 6.79086 3.79086 5 6 5H18C20.2091 5 22 6.79086 22 9V15C22 17.2091 20.2091 19 18 19H6C3.79086 19 2 17.2091 2 15Z" stroke="currentColor" stroke-width="1.5"/>
  </symbol>
  <symbol id="icon-github" viewBox="0 0 24 24" fill="none" stroke-width="1.5">
    <path d="M12 22C17.5228 22 22 17.5228 22 12C22 6.47715 17.5228 2 12 2C6.47715 2 2 6.47715 2 12C2 17.5228 6.47715 22 12 22Z" stroke="currentColor" stroke-linecap="round" stroke-linejoin="round"/>
    <path d="M14.3333 19V17.137C14.3583 16.8275 14.3154 16.5163 14.2073 16.2242C14.0993 15.9321 13.9286 15.6657 13.7067 15.4428C15.8 15.2156 18 14.4431 18 10.8989C17.9998 9.99256 17.6418 9.12101 17 8.46461C17.3039 7.67171 17.2824 6.79528 16.94 6.01739C16.94 6.01739 16.1533 5.7902 14.3333 6.97811C12.8053 6.57488 11.1947 6.57488 9.66666 6.97811C7.84666 5.7902 7.05999 6.01739 7.05999 6.01739C6.71757 6.79528 6.69609 7.67171 6.99999 8.46461C6.35341 9.12588 5.99501 10.0053 5.99999 10.9183C5.99999 14.4366 8.19999 15.2091 10.2933 15.4622C10.074 15.6829 9.90483 15.9461 9.79686 16.2347C9.68889 16.5232 9.64453 16.8306 9.66666 17.137V19" stroke="currentColor" stroke-linecap="round" stroke-linejoin="round"/>
    <path d="M9.66667 17.7018C7.66667 18.3335 6 17.7018 5 15.7544" stroke="currentColor" stroke-linecap="round" stroke-linejoin="round"/>
  </symbol>
  <symbol id="icon-fediverse" viewBox="0 0 24 24" fill="none" stroke-width="1.5">
    <path d="M4.63495 14.4151L5.67396 12.2121C5.80734 11.9293 6.19266 11.9293 6.32604 12.2121L7.36505 14.4151L9.68859 14.7706C9.98671 14.8162 10.1055 15.1997 9.8897 15.4198L8.2087 17.1334L8.60542 19.5543C8.65636 19.8652 8.34456 20.1022 8.07781 19.9554L6 18.8118L3.92219 19.9554C3.65544 20.1022 3.34363 19.8652 3.39458 19.5543L3.7913 17.1334L2.1103 15.4198C1.89447 15.1997 2.01329 14.8162 2.31141 14.7706L4.63495 14.4151Z" fill="currentColor" stroke="currentColor" stroke-linecap="round" stroke-linejoin="round"/>
    <path d="M16.6349 14.4151L17.674 12.2121C17.8073 11.9293 18.1927 11.9293 18.326 12.2121L19.3651 14.4151L21.6886 14.7706C21.9867 14.8162 22.1055 15.1997 21.8897 15.4198L20.2087 17.1334L20.6054 19.5543C20.6564 19.8652 20.3446 20.1022 20.0778 19.9554L18 18.8118L15.9222 19.9554C15.6554 20.1022 15.3436 19.8652 15.3946 19.5543L15.7913 17.1334L14.1103 15.4198C13.8945 15.1997 14.0133 14.8162 14.3114 14.7706L16.6349 14.4151Z" fill="currentColor" stroke="currentColor" stroke-linecap="round" stroke-linejoin="round"/>
    <path d="M10.6349 5.41515L11.674 3.21211C11.8073 2.9293 12.1927 2.9293 12.326 3.21211L13.3651 5.41515L15.6886 5.7706C15.9867 5.8162 16.1055 6.19974 15.8897 6.41976L14.2087 8.13337L14.6054 10.5543C14.6564 10.8652 14.3446 11.1022 14.0778 10.9554L12 9.81178L9.92219 10.9554C9.65544 11.1022 9.34363 10.8652 9.39458 10.5543L9.7913 8.13337L8.1103 6.41976C7.89447 6.19974 8.01329 5.8162 8.31141 5.7706L10.6349 5.41515Z" fill="currentColor" stroke="currentColor" stroke-linecap="round" stroke-linejoin="round"/>
  </symbol>
  <symbol id="icon-bluesky" viewBox="0 0 24 24">
    <path fill="currentColor" d="M12 10.8c-1.087-2.114-4.046-6.053-6.798-7.995C2.566.944 1.561 1.266.902 1.565.139 1.908 0 3.08 0 3.768c0 .69.378 5.65.624 6.479.815 2.736 3.713 3.66 6.383 3.364.136-.02.275-.039.415-.056-.138.022-.276.04-.415.056-3.912.58-7.387 2.005-2.83 7.078 5.013 5.19 6.87-1.113 7.823-4.308.953 3.195 2.05 9.271 7.733 4.308 4.267-4.308 1.172-6.498-2.74-7.078a8.741 8.741 0 0 1-.415-.056c.14.017.279.036.415.056 2.67.297 5.568-.628 6.383-3.364.246-.828.624-5.79.624-6.478 0-.69-.139-1.861-.902-2.206-.659-.298-1.664-.62-4.3 1.24C16.046 4.748 13.087 8.687 12 10.8Z"/>
  </symbol>
  <symbol id="icon-rss" viewBox="0 0 24 24" fill="none" stroke-width="1.5">
    <path d="M12 19C12 14.82 8.66 12 5 12" stroke="currentColor" stroke-linecap="round" stroke-linejoin="round"/>
    <path d="M19 19C19 10.27 13.73 5 5 5" stroke="currentColor" stroke-linecap="round" stroke-linejoin="round"/>
    <path d="M5 19C5.55228 19 6 18.5523 6 18C6 17.4477 5.55228 17 5 17C4.44772 17 4 17.4477 4 18C4 18.5523 4.44772 19 5 19Z" fill="currentColor" stroke="currentColor" stroke-linecap="round" stroke-linejoin="round"/>
  </symbol>
  <symbol id="icon-menu" viewBox="0 0 24 24" fill="none" stroke-width="1.5">
    <path d="M3 5H21" stroke="currentColor" stroke-linecap="round" stroke-linejoin="round"/>
    <path d="M3 12H21" stroke="currentColor" stroke-linecap="round" stroke-linejoin="round"/>
    <path d="M3 19H21" stroke="currentColor" stroke-linecap="round" stroke-linejoin="round"/>
  </symbol>
  <symbol id="icon-close" viewBox="0 0 24 24" fill="none" stroke-width="1.5">
    <path d="M6.758 17.243L12 12M17.243 6.757L12 12M12 12L6.758 6.757M12 12L17.243 17.243" stroke="currentColor" stroke-linecap="round" stroke-linejoin="round"/>
  </symbol>
  <symbol id="icon-sun" viewBox="0 0 24 24" fill="none" stroke-width="1.5">
    <path d="M12 18C15.3137 18 18 15.3137 18 12C18 8.68629 15.3137 6 12 6C8.68629 6 6 8.68629 6 12C6 15.3137 8.68629 18 12 18Z" fill="currentColor" stroke="currentColor" stroke-linecap="round" stroke-linejoin="round"/>
    <path d="M22 12L23 12" stroke="currentColor" stroke-linecap="round" stroke-linejoin="round"/>
    <path d="M12 2V1" stroke="currentColor" stroke-linecap="round" stroke-linejoin="round"/>
    <path d="M12 23V22" stroke="currentColor" stroke-linecap="round" stroke-linejoin="round"/>
    <path d="M20 20L19 19" stroke="currentColor" stroke-linecap="round" stroke-linejoin="round"/>
    <path d="M20 4L19 5" stroke="currentColor" stroke-linecap="round" stroke-linejoin="round"/>
    <path d="M4 20L5 19" stroke="currentColor" stroke-linecap="round" stroke-linejoin="round"/>
    <path d="M4 4L5 5" stroke="currentColor" stroke-linecap="round" stroke-linejoin="round"/>
    <path d="M1 12L2 12" stroke="currentColor" stroke-linecap="round" stroke-linejoin="round"/>
  </symbol>
  <symbol id="icon-moon" viewBox="0 0 24 24" fill="none" stroke-width="1.5">
    <path d="M3 11.5066C3 16.7497 7.25034 21 12.4934 21C16.2209 21 19.4466 18.8518 21 15.7259C12.4934 15.7259 8.27411 11.5066 8.27411 3C5.14821 4.55344 3 7.77915 3 11.5066Z" fill="var(--bg)" stroke="currentColor" stroke-linecap="round" stroke-linejoin="round"/>
  </symbol>
</svg>
