<svg xmlns="http://www.w3.org/2000/svg" viewBox="0 0 512 512" width="512" height="512">
  <defs>
    <linearGradient id="bg" gradientUnits="userSpaceOnUse" x1="51.50" y1="548.06" x2="460.50" y2="-36.06"><stop offset="0%" stop-color="#00aeff"/><stop offset="12%" stop-color="#00bbff"/><stop offset="22%" stop-color="#00c8ff"/><stop offset="31%" stop-color="#00d0fa"/><stop offset="40%" stop-color="#00d7eb"/><stop offset="48%" stop-color="#00e0d9"/><stop offset="55%" stop-color="#00e6bf"/><stop offset="63%" stop-color="#00eba4"/><stop offset="70%" stop-color="#2eef88"/><stop offset="78%" stop-color="#77f16a"/><stop offset="85%" stop-color="#a9f14b"/><stop offset="93%" stop-color="#d5ef2a"/><stop offset="100%" stop-color="#ffea00"/></linearGradient>
  </defs>
  <rect width="512" height="512" fill="url(#bg)"/>
  <g fill="#212121">
    <path d="M177.66 115.2L222.73 115.2L257.21 326.93L223.94 326.93L217.89 284.89L217.89 285.49L180.08 285.49L174.03 326.93L143.18 326.93ZM213.96 256.76L199.14 152.1L198.53 152.1L184.01 256.76Z"/><path d="M315.59 329.95Q291.39 329.95 278.99 316.19Q266.59 302.43 266.59 276.72L266.59 264.62L298.04 264.62L298.04 279.14Q298.04 299.71 315.28 299.71Q323.75 299.71 328.14 294.72Q332.53 289.73 332.53 278.53Q332.53 265.23 326.48 255.09Q320.43 244.96 304.09 230.74Q283.52 212.6 275.36 197.93Q267.19 183.26 267.19 164.81Q267.19 139.7 279.9 125.94Q292.6 112.18 316.8 112.18Q340.69 112.18 352.94 125.94Q365.19 139.7 365.19 165.41L365.19 174.18L333.73 174.18L333.73 163.29Q333.73 152.4 329.5 147.41Q325.27 142.42 317.1 142.42Q300.46 142.42 300.46 162.69Q300.46 174.18 306.66 184.16Q312.86 194.14 329.2 208.36Q350.07 226.51 357.93 241.33Q365.8 256.15 365.8 276.11Q365.8 302.13 352.94 316.04Q340.09 329.95 315.59 329.95Z"/>
    <rect x="139.55" y="369.28" width="232.90" height="27.52" rx="13.76"/>
  </g>
</svg>