<svg xmlns="http://www.w3.org/2000/svg" viewBox="0 0 512 512" width="512" height="512">
  <defs>
    <linearGradient id="bg" gradientUnits="userSpaceOnUse" x1="51.50" y1="548.06" x2="460.50" y2="-36.06"><stop offset="0%" stop-color="#00aeff"/><stop offset="12%" stop-color="#00bbff"/><stop offset="22%" stop-color="#00c8ff"/><stop offset="31%" stop-color="#00d0fa"/><stop offset="40%" stop-color="#00d7eb"/><stop offset="48%" stop-color="#00e0d9"/><stop offset="55%" stop-color="#00e6bf"/><stop offset="63%" stop-color="#00eba4"/><stop offset="70%" stop-color="#2eef88"/><stop offset="78%" stop-color="#77f16a"/><stop offset="85%" stop-color="#a9f14b"/><stop offset="93%" stop-color="#d5ef2a"/><stop offset="100%" stop-color="#ffea00"/></linearGradient>
  </defs>
  <rect width="512" height="512" fill="url(#bg)"/>
  <g fill="#212121">
    <path d="M156.29 76.8L213.65 76.8L257.54 346.27L215.19 346.27L207.49 292.76L207.49 293.53L159.37 293.53L151.68 346.27L112.41 346.27ZM202.49 256.96L183.63 123.77L182.86 123.77L164.38 256.96Z"/><path d="M331.84 350.12Q301.04 350.12 285.26 332.61Q269.47 315.09 269.47 282.37L269.47 266.97L309.51 266.97L309.51 285.45Q309.51 311.63 331.45 311.63Q342.23 311.63 347.81 305.28Q353.4 298.92 353.4 284.68Q353.4 267.74 345.7 254.85Q338 241.95 317.21 223.86Q291.03 200.76 280.64 182.09Q270.24 163.42 270.24 139.93Q270.24 107.98 286.41 90.47Q302.58 72.95 333.38 72.95Q363.79 72.95 379.38 90.47Q394.97 107.98 394.97 140.7L394.97 151.87L354.94 151.87L354.94 138.01Q354.94 124.15 349.55 117.8Q344.16 111.45 333.76 111.45Q312.59 111.45 312.59 137.24Q312.59 151.87 320.48 164.57Q328.37 177.28 349.16 195.37Q375.72 218.47 385.73 237.33Q395.74 256.19 395.74 281.6Q395.74 314.71 379.38 332.42Q363.02 350.12 331.84 350.12Z"/>
    <rect x="107.79" y="400.17" width="296.42" height="35.03" rx="17.52"/>
  </g>
</svg>