<svg xmlns="http://www.w3.org/2000/svg" width="210mm" height="297mm" viewBox="0 0 744.09448819 1052.3622047"><g transform="matrix(.45 0 0 .45 -39.286 532.362)" fill="none" stroke="#000"><path d="M676.13-28.282l27.34 7.025 27.314 10.73v21.053l-27.314 10.73-27.34 7.026-1.52 25.141 26.293 10.27 25.821 13.944-2.537 20.899-28.409 7.36-27.986 3.678-4.54 24.775 24.863 13.363 23.953 16.956-5.039 20.44-29.088 3.882-28.226.279-7.493 24.046 23.071 16.263 21.734 19.72-7.465 19.684-29.344.347-28.054-3.126-10.337 22.968 20.943 18.926 19.199 22.195-9.784 18.64-29.172-3.192-27.472-6.484-13.03 21.555 18.508 21.311 16.384 24.348-11.96 17.325-28.574-6.685-26.49-9.749-15.534 19.827 15.805 23.388 13.33 26.144-13.96 15.758-27.561-10.08-25.122-12.871-17.81 17.81 12.87 25.122 10.081 27.56-15.758 13.96-26.144-13.329-23.388-15.805-19.827 15.534 9.75 26.49 6.684 28.575-17.325 11.959-24.348-16.384-21.312-18.509-21.554 13.03 6.484 27.473 3.193 29.172-18.641 9.784-22.195-19.2-18.926-20.942-22.968 10.337 3.126 28.054-.347 29.344-19.685 7.465-19.719-21.734-16.263-23.071-24.046 7.493-.279 28.226-3.882 29.088-20.44 5.039-16.956-23.953-13.363-24.863-24.775 4.54-3.678 27.986-7.36 28.409-20.9 2.537-13.944-25.821-10.269-26.293-25.141 1.52-7.025 27.34-10.73 27.314h-21.053l-10.73-27.314-7.026-27.34-25.141-1.52-10.27 26.293-13.944 25.821-20.899-2.537-7.36-28.409-3.678-27.986-24.775-4.54-13.363 24.863-16.956 23.953-20.44-5.039-3.882-29.088-.279-28.226-24.046-7.493-16.263 23.071-19.72 21.734-19.684-7.465-.347-29.344 3.126-28.054-22.968-10.337-18.926 20.943-22.195 19.199-18.64-9.784 3.192-29.172 6.484-27.472-21.555-13.03-21.311 18.508-24.348 16.384-17.325-11.96 6.685-28.574 9.749-26.49-19.827-15.534-23.388 15.805-26.144 13.33-15.758-13.96 10.08-27.561 12.871-25.122-17.81-17.81-25.122 12.87-27.56 10.081-13.96-15.758 13.329-26.144 15.805-23.388-15.534-19.827-26.49 9.75-28.575 6.684-11.959-17.325 16.384-24.348 18.509-21.311-13.03-21.555-27.473 6.484-29.172 3.193-9.784-18.641 19.2-22.195 20.942-18.926-10.337-22.968-28.054 3.126-29.344-.347-7.465-19.685 21.734-19.719 23.071-16.263-7.493-24.046-28.226-.279-29.088-3.882-5.039-20.44 23.953-16.956 24.863-13.363-4.54-24.775-27.986-3.678-28.409-7.36-2.537-20.9 25.821-13.944 26.293-10.269-1.52-25.141-27.34-7.025-27.314-10.73v-21.053l27.314-10.73 27.34-7.026 1.52-25.141-26.293-10.27-25.821-13.944 2.537-20.899 28.409-7.36 27.986-3.678 4.54-24.775-24.863-13.363-23.953-16.956 5.039-20.44 29.088-3.882 28.226-.279 7.493-24.046-23.071-16.263-21.734-19.72 7.465-19.684 29.344-.347 28.054 3.126 10.337-22.968-20.943-18.926-19.199-22.195 9.784-18.64 29.172 3.192 27.472 6.484 13.03-21.554-18.508-21.312-16.384-24.348 11.96-17.325 28.574 6.685 26.49 9.749 15.534-19.827-15.805-23.388-13.33-26.144 13.96-15.758 27.561 10.08 25.122 12.871 17.81-17.81-12.87-25.122-10.081-27.56 15.758-13.96 26.144 13.329 23.388 15.805 19.827-15.534-9.75-26.49-6.684-28.575 17.325-11.959 24.348 16.384 21.311 18.509 21.555-13.03-6.484-27.473-3.193-29.172 18.641-9.784 22.195 19.2 18.926 20.942 22.968-10.337-3.126-28.054.347-29.344 19.685-7.465 19.719 21.734 16.263 23.071 24.046-7.493.279-28.226 3.882-29.088 20.44-5.039 16.956 23.953 13.363 24.863 24.775-4.54 3.678-27.986 7.36-28.409 20.9-2.537 13.944 25.821 10.269 26.293 25.141-1.52 7.025-27.34 10.73-27.314h21.053l10.73 27.314 7.026 27.34 25.141 1.52 10.27-26.293 13.944-25.821 20.899 2.537 7.36 28.409 3.678 27.986 24.775 4.54 13.363-24.863 16.956-23.953 20.44 5.039 3.882 29.088.279 28.226 24.046 7.493 16.263-23.071 19.72-21.734 19.684 7.465.347 29.344-3.126 28.054 22.968 10.337 18.926-20.943 22.195-19.199 18.64 9.784-3.192 29.172-6.484 27.472 21.554 13.03 21.312-18.508 24.348-16.384 17.325 11.96-6.685 28.574-9.749 26.49 19.827 15.534 23.388-15.805 26.144-13.33 15.758 13.96-10.08 27.561-12.871 25.122 17.81 17.81 25.122-12.87 27.56-10.081 13.96 15.758-13.329 26.144-15.805 23.388 15.534 19.827 26.49-9.75 28.575-6.684 11.959 17.325-16.384 24.348-18.509 21.312 13.03 21.554 27.473-6.484 29.172-3.193 9.784 18.641-19.2 22.195-20.942 18.926 10.337 22.968 28.054-3.126 29.344.347 7.465 19.685-21.734 19.719-23.071 16.263 7.493 24.046 28.226.279 29.088 3.882 5.039 20.44-23.953 16.956-24.863 13.363 4.54 24.775 27.986 3.678 28.409 7.36 2.537 20.9-25.821 13.944-26.293 10.269z"/><circle r="487.205"/></g></svg>