<svg xmlns="http://www.w3.org/2000/svg" width="210mm" height="297mm" viewBox="0 0 744.09448819 1052.3622047"><g transform="matrix(.4 0 0 .4 325 532.362)" fill="none" stroke="#000"><path d="M215.422-22.087l12.312-1.262 14.959 2.116 27.839 12.009V9.224l-27.84 12.009-14.958 2.116-12.312-1.262-5.438 30.837 12.002 3.025 13.333 7.104L257.37 83.86l-6.31 17.336-30.266 1.763-14.78-3.127-11.139-5.398-15.656 27.118 10.243 6.947 10.099 11.237 13.606 27.093-11.858 14.132-29.045-8.695-12.82-7.994-8.62-8.881-23.986 20.127 7.249 10.032 5.647 14.013 3.52 30.113-15.978 9.224-24.319-18.104-9.312-11.897-5.063-11.294-29.424 10.71 3.38 11.906.514 15.099-6.992 29.5-18.168 3.204-16.66-25.33-4.682-14.364-.895-12.345h-31.312l-.895 12.345-4.682 14.364-16.66 25.33-18.168-3.203-6.992-29.501.513-15.1 3.381-11.905-29.424-10.71-5.063 11.294-9.312 11.897-24.32 18.104-15.976-9.224 3.52-30.113 5.646-14.013 7.25-10.032-23.988-20.127-8.62 8.881-12.82 7.994-29.044 8.695-11.858-14.132 13.606-27.093 10.1-11.237 10.242-6.947-15.656-27.118-11.138 5.398-14.78 3.127-30.268-1.763-6.31-17.336 22.053-20.806 13.333-7.104 12.002-3.025-5.438-30.837-12.312 1.262-14.959-2.116-27.839-12.009V-9.224l27.84-12.009 14.958-2.116 12.312 1.262 5.438-30.837-12.002-3.025-13.333-7.104-22.052-20.806 6.31-17.336 30.266-1.763 14.781 3.127 11.138 5.398 15.656-27.118-10.243-6.947-10.099-11.237-13.606-27.093 11.858-14.132 29.045 8.695 12.82 7.994 8.62 8.881 23.986-20.127-7.249-10.032-5.647-14.013-3.52-30.113 15.978-9.224 24.319 18.104 9.312 11.897 5.063 11.294 29.424-10.71-3.38-11.906-.514-15.099 6.992-29.5 18.168-3.204 16.66 25.33 4.682 14.364.895 12.345h31.312l.895-12.345 4.682-14.364 16.66-25.33 18.168 3.203 6.992 29.501-.513 15.1-3.381 11.905 29.424 10.71 5.063-11.294 9.312-11.897 24.32-18.104 15.976 9.224-3.52 30.113-5.646 14.013-7.25 10.032 23.988 20.127 8.62-8.881 12.82-7.994 29.044-8.695 11.858 14.132-13.606 27.093-10.1 11.237-10.242 6.947 15.656 27.118 11.138-5.398 14.78-3.127 30.268 1.763 6.31 17.336-22.053 20.806-13.333 7.104-12.002 3.025z"/><circle r="168.307"/></g></svg>