<svg xmlns="http://www.w3.org/2000/svg" viewBox="0 0 744.09448819 1052.3622047" height="297mm" width="210mm"><g transform="matrix(.45 0 0 .45 85.194 550.05)" fill="none" stroke="#000"><path d="M459.392-26.767l27.384 5.514 27.432 11.066v20.374l-27.432 11.066-27.384 5.514-2.332 26.646 26.011 10.185 25.094 15.66-3.538 20.066-28.937 6.134-27.925.674-6.923 25.837 23.847 14.547 21.992 19.78-6.968 19.146-29.562 1.017-27.619-4.185-11.304 24.241 20.959 18.467 18.223 23.3-10.187 17.644-29.29-4.132-26.471-8.918-15.342 21.91 17.433 21.827 13.901 26.11-13.096 15.607-28.127-9.156-24.522-13.378-18.913 18.913 13.378 24.522 9.156 28.127-15.608 13.096-26.11-13.9-21.825-17.434-21.91 15.342 8.917 26.472 4.132 29.29-17.645 10.186-23.299-18.223-18.467-20.959-24.241 11.304 4.185 27.619-1.017 29.562-19.145 6.968-19.781-21.992-14.547-23.847-25.837 6.923-.674 27.925-6.134 28.937-20.065 3.538-15.661-25.094-10.185-26.01-26.646 2.33-5.514 27.385-11.066 27.432h-20.374l-11.066-27.432-5.514-27.384-26.646-2.332-10.185 26.011-15.66 25.094-20.066-3.538-6.134-28.937-.674-27.925-25.837-6.923-14.547 23.847-19.78 21.992-19.146-6.968-1.017-29.562 4.185-27.619-24.241-11.304-18.467 20.959-23.3 18.223-17.644-10.187 4.132-29.29 8.918-26.471-21.91-15.342-21.827 17.433-26.11 13.901-15.607-13.096 9.156-28.127 13.378-24.522-18.913-18.913-24.522 13.378-28.127 9.156-13.096-15.608 13.9-26.11 17.434-21.825-15.342-21.91-26.472 8.917-29.29 4.132-10.186-17.645 18.223-23.299 20.959-18.467-11.304-24.241-27.619 4.185-29.562-1.017-6.968-19.145 21.992-19.781 23.847-14.547-6.923-25.837-27.925-.674-28.937-6.134-3.538-20.065 25.094-15.661 26.01-10.185-2.33-26.646-27.385-5.514-27.432-11.066v-20.374l27.432-11.066 27.384-5.514 2.332-26.646-26.011-10.185-25.094-15.66 3.538-20.066 28.937-6.134 27.925-.674 6.923-25.837-23.847-14.547-21.992-19.78 6.968-19.146 29.562-1.017 27.619 4.185 11.304-24.241-20.959-18.467-18.223-23.3 10.187-17.644 29.29 4.132 26.471 8.918 15.342-21.91-17.433-21.827-13.901-26.11 13.096-15.607 28.127 9.156 24.522 13.378 18.913-18.913-13.378-24.522-9.156-28.127 15.608-13.096 26.11 13.9 21.825 17.434 21.91-15.342-8.917-26.472-4.132-29.29 17.645-10.186 23.299 18.223 18.467 20.959 24.241-11.304-4.185-27.619 1.017-29.562 19.145-6.968 19.781 21.992 14.547 23.847 25.837-6.923.674-27.925 6.134-28.937 20.065-3.538 15.661 25.094 10.185 26.01 26.646-2.33 5.514-27.385 11.066-27.432h20.374l11.066 27.432 5.514 27.384 26.646 2.332 10.185-26.011 15.66-25.094 20.066 3.538 6.134 28.937.674 27.925 25.837 6.923 14.547-23.847 19.78-21.992 19.146 6.968 1.017 29.562-4.185 27.619 24.241 11.304 18.467-20.959 23.3-18.223 17.644 10.187-4.132 29.29-8.918 26.471 21.91 15.342 21.827-17.433 26.11-13.901 15.607 13.096-9.156 28.127-13.378 24.522 18.913 18.913 24.522-13.378 28.127-9.156 13.096 15.608-13.9 26.11-17.434 21.825 15.342 21.91 26.472-8.917 29.29-4.132 10.186 17.645-18.223 23.299-20.959 18.467 11.304 24.241 27.619-4.185 29.562 1.017 6.968 19.145-21.992 19.781-23.847 14.547 6.923 25.837 27.925.674 28.937 6.134 3.538 20.065-25.094 15.661-26.01 10.185z"/><circle r="336.614"/></g></svg>